<svg xmlns="http://www.w3.org/2000/svg" viewBox="0 0 200 300" width="200" height="300">
  <defs>
    <radialGradient id="eggGradient" cx="50%" cy="50%" r="50%" fx="50%" fy="50%">
      <stop offset="0%" style="stop-color:#e0c5a8; stop-opacity:1" />
      <stop offset="50%" style="stop-color:#b58c4f; stop-opacity:1" />
      <stop offset="100%" style="stop-color:#7f5524; stop-opacity:1" />
    </radialGradient>
    <radialGradient id="highlight" cx="40%" cy="35%" r="20%">
      <stop offset="0%" style="stop-color:#fff6d5; stop-opacity:0.5" />
      <stop offset="100%" style="stop-color:#ffffff; stop-opacity:0" />
    </radialGradient>
    <filter id="glow" x="-50%" y="-50%" width="200%" height="200%">
      <feGaussianBlur in="SourceGraphic" stdDeviation="15" result="blur" />
      <feFlood flood-color="#ffd700" result="gold" />
      <feComposite in2="blur" operator="in" />
      <feMerge>
        <feMergeNode />
        <feMergeNode in="SourceGraphic" />
      </feMerge>
    </filter>
  </defs>

  <ellipse cx="100" cy="150" rx="90" ry="130" fill="url(#eggGradient)" />
  <ellipse cx="90" cy="140" rx="60" ry="90" fill="url(#highlight)" />
  <ellipse cx="100" cy="160" rx="85" ry="120" fill="rgba(255, 255, 255, 0.1)" />

  <ellipse cx="100" cy="150" rx="90" ry="130" fill="none" filter="url(#glow)">
    <animate attributeName="opacity" values="0.2; 1; 0.2" dur="1.5s" repeatCount="indefinite" />
  </ellipse>

  <path d="M 50 100 L 70 120 L 90 100 L 110 120 L 130 100 L 150 120" stroke="#3b2f1c" stroke-width="3" fill="none" />
  <path d="M 60 90 L 80 110 L 100 90 L 120 110 L 140 90 L 160 110" stroke="#3b2f1c" stroke-width="3" fill="none" />
  <path d="M 70 80 L 90 100 L 110 80 L 130 100 L 150 80" stroke="#3b2f1c" stroke-width="3" fill="none" />
  
  <path d="M 40 150 L 60 130 L 80 150 L 100 130 L 120 150 L 140 130 L 160 150" stroke="#3b2f1c" stroke-width="3" fill="none" />
  <path d="M 50 160 L 70 140 L 90 160 L 110 140 L 130 160 L 150 140 L 170 160" stroke="#3b2f1c" stroke-width="3" fill="none" />
  <path d="M 60 170 L 80 150 L 100 170 L 120 150 L 140 170 L 160 150" stroke="#3b2f1c" stroke-width="3" fill="none" />
  
  <path d="M 70 200 L 90 180 L 110 200 L 130 180 L 150 200 L 170 180" stroke="#3b2f1c" stroke-width="3" fill="none" />
  <path d="M 80 220 L 100 200 L 120 220 L 140 200 L 160 220" stroke="#3b2f1c" stroke-width="3" fill="none" />
  <path d="M 90 240 L 110 220 L 130 240 L 150 220" stroke="#3b2f1c" stroke-width="3" fill="none" />

  <path d="M 50 100 L 70 120 L 60 140 L 80 160 L 70 180" stroke="#3b2f1c" stroke-width="3" fill="none" />
  <path d="M 80 90 L 100 110 L 90 130 L 110 150 L 100 170" stroke="#3b2f1c" stroke-width="3" fill="none" />
  <path d="M 110 80 L 130 100 L 120 120 L 140 140 L 130 160" stroke="#3b2f1c" stroke-width="3" fill="none" />
  <path d="M 70 160 L 90 180 L 80 200 L 100 220" stroke="#3b2f1c" stroke-width="3" fill="none" />
  <path d="M 90 130 L 110 150 L 100 170 L 120 190" stroke="#3b2f1c" stroke-width="3" fill="none" />
  <path d="M 110 100 L 130 120 L 120 140 L 140 160" stroke="#3b2f1c" stroke-width="3" fill="none" />

</svg>
