<svg xmlns="http://www.w3.org/2000/svg" viewBox="0 0 200 300" width="200" height="300">
  <defs>
    <radialGradient id="eggGradient" cx="50%" cy="50%" r="50%" fx="50%" fy="50%">
      <stop offset="0%" style="stop-color:#e0c5a8; stop-opacity:1" />
      <stop offset="50%" style="stop-color:#b58c4f; stop-opacity:1" />
      <stop offset="100%" style="stop-color:#7f5524; stop-opacity:1" />
    </radialGradient>
    <radialGradient id="highlight" cx="40%" cy="35%" r="20%">
      <stop offset="0%" style="stop-color:#fff6d5; stop-opacity:0.5" />
      <stop offset="100%" style="stop-color:#ffffff; stop-opacity:0" />
    </radialGradient>
    <filter id="glow" x="-50%" y="-50%" width="200%" height="200%">
      <feGaussianBlur in="SourceGraphic" stdDeviation="15" result="blur" />
      <feFlood flood-color="#ffd700" result="gold" />
      <feComposite in2="blur" operator="in" />
      <feMerge>
        <feMergeNode />
        <feMergeNode in="SourceGraphic" />
      </feMerge>
    </filter>
  </defs>

  <ellipse cx="100" cy="150" rx="90" ry="130" fill="url(#eggGradient)" />
  <ellipse cx="90" cy="140" rx="60" ry="90" fill="url(#highlight)" />
  <ellipse cx="100" cy="160" rx="85" ry="120" fill="rgba(255, 255, 255, 0.1)" />

  <ellipse cx="100" cy="150" rx="90" ry="130" fill="none" filter="url(#glow)">
    <animate attributeName="opacity" values="0.2; 1; 0.2" dur="1.5s" repeatCount="indefinite" />
  </ellipse>

  <!-- Більше тріщин -->
  <path d="M 40 190 L 60 170 L 80 190 L 100 170 L 120 190" stroke="#3b2f1c" stroke-width="4" fill="none" />
  <path d="M 50 210 L 70 190 L 90 210 L 110 190 L 130 210" stroke="#3b2f1c" stroke-width="4" fill="none" />
  <path d="M 60 230 L 80 210 L 100 230 L 120 210 L 140 230" stroke="#3b2f1c" stroke-width="4" fill="none" />
  <path d="M 70 250 L 90 230 L 110 250 L 130 230 L 150 250" stroke="#3b2f1c" stroke-width="4" fill="none" />
  <path d="M 100 270 L 110 250 L 130 260 L 140 240" stroke="#3b2f1c" stroke-width="4" fill="none" />
  <path d="M 120 180 L 140 160 L 160 180 L 170 160" stroke="#3b2f1c" stroke-width="4" fill="none" />
</svg>
